<?xml version="1.0" encoding="utf-8"?>
<!-- Generator: Adobe Illustrator 27.7.0, SVG Export Plug-In . SVG Version: 6.00 Build 0)  -->
<svg version="1.1" id="Layer_1" xmlns="http://www.w3.org/2000/svg" xmlns:xlink="http://www.w3.org/1999/xlink" x="0px" y="0px"
	 viewBox="0 0 750 750" style="enable-background:new 0 0 750 750;" xml:space="preserve">
<style type="text/css">
	.st0{fill:none;stroke:#000000;stroke-miterlimit:10;}
</style>
<g>
	<g>
		<ellipse transform="matrix(0.7071 -0.7071 0.7071 0.7071 -46.1985 105.8154)" cx="104.63" cy="108.67" rx="102.17" ry="102.17"/>
		<path d="M104.63,7c56.06,0,101.67,45.61,101.67,101.67s-45.61,101.67-101.67,101.67S2.96,164.74,2.96,108.67S48.57,7,104.63,7
			 M104.63,6C47.93,6,1.96,51.97,1.96,108.67s45.97,102.67,102.67,102.67s102.67-45.97,102.67-102.67S161.34,6,104.63,6L104.63,6z"
			/>
	</g>
	<g>
		<path d="M100.5,743.5c-54.59,0-99-45.08-99-100.5c0-22.59,7.21-43.92,20.85-61.71l0.22-0.29c0.14-0.18,0.28-0.36,0.42-0.53
			L542.32,61.14c19.14-23.94,47.62-37.64,78.18-37.64c55.14,0,100,44.86,100,100c0,27.83-11.73,54.61-32.18,73.47L342.28,543h297.68
			c3.31-0.33,6.63-0.5,9.91-0.5c54.38,0,98.63,44.64,98.63,99.5s-44.25,99.5-98.63,99.5c-0.91,0-1.82-0.01-2.72-0.04l-0.52-0.02
			v0.48H118.11C112.29,742.97,106.4,743.5,100.5,743.5z"/>
		<path d="M620.5,24c54.86,0,99.5,44.64,99.5,99.5c0,14.13-2.9,27.79-8.62,40.58c-5.53,12.36-13.4,23.31-23.42,32.55L342.78,541.79
			l-1.71,1.71h2.41h296.47h0.05l0.05-0.01c3.24-0.33,6.54-0.49,9.81-0.49c54.11,0,98.13,44.41,98.13,99s-44.02,99-98.13,99
			c-1.03,0-1.89-0.01-2.71-0.04l-1.03-0.03v0.49H118.11h-0.09l-0.09,0.02c-5.7,1.04-11.56,1.56-17.43,1.56C46.19,743,2,698.14,2,643
			c0-22.47,7.17-43.71,20.74-61.39l0.24-0.31c0.12-0.16,0.24-0.32,0.37-0.47l17.11-17.11L542.68,61.5l0.04-0.04l0.03-0.04
			C561.76,37.64,590.1,24,620.5,24 M620.5,23c-31.78,0-60.12,14.76-78.53,37.79L39.75,563.01L22.6,580.16
			c-0.22,0.27-0.43,0.55-0.65,0.83C8.82,598.11,1,619.63,1,643c0,55.78,44.55,101,99.5,101c6.01,0,11.9-0.54,17.61-1.58h529.02
			v-0.46c0.91,0.03,1.82,0.04,2.74,0.04c54.75,0,99.13-44.77,99.13-100s-44.38-100-99.13-100c-3.35,0-6.65,0.17-9.91,0.5H343.49
			l345.17-345.16C708.55,178.99,721,152.7,721,123.5C721,68,676,23,620.5,23L620.5,23z"/>
	</g>
</g>
<g>
	<path d="M39.75,564.01c-6.37,4.99-12.14,10.75-17.15,17.15L39.75,564.01L39.75,564.01z"/>
</g>
<path class="st0" d="M22.6,581.16c-0.22,0.27-0.43,0.55-0.65,0.83l-0.09-0.09L22.6,581.16z"/>
</svg>
